<?xml version="1.0" encoding="UTF-8"?>
<svg id="icon-folder" xmlns="http://www.w3.org/2000/svg" viewBox="0 0 16 16">
  <path d="m14.49,5.3v-1.24c0-.81-.66-1.46-1.46-1.46h-6.67s0,0,0,0l-.34-.62h-3.52c-1.05,0-1.91.86-1.91,1.91v8.47c.01,1.04.86,1.87,1.89,1.87h11.17c1.05,0,1.91-.86,1.91-1.91v-5.32c0-.73-.44-1.37-1.05-1.69Zm-1.46-1.95c.39,0,.71.32.71.71v1.03s-.07-.01-.11-.01h-5.91l-.96-1.73h6.26Zm1.26,8.96c0,.36-.3.66-.66.66H2.48c-.33.03-.65-.28-.65-.66V3.88c0-.36.3-.66.66-.66h2.78l1.71,3.11h6.64c.35,0,.66.31.66.66v5.32Z"/>
</svg>