<?xml version="1.0" encoding="UTF-8"?>
<svg id="icon-folder-open-inverse" xmlns="http://www.w3.org/2000/svg" viewBox="0 0 16 16">
  <path d="m14.55,7.09h-1.25v-3.76H2.81v2.12h-1.25v-2.75c0-.34.28-.62.62-.62h11.74c.35,0,.62.28.62.62v4.38Z"/>
  <path d="m13.75,13.53H2.35c-.18,0-.34-.13-.37-.31L.58,5.43c-.02-.11.01-.22.08-.31.07-.09.18-.13.29-.13h4.6c.16,0,.3.1.35.25l.55,1.49h8.7c.11,0,.22.05.29.14.07.09.1.21.07.32l-1.39,6.06c-.04.17-.19.29-.37.29Zm-11.09-.75h10.79l1.22-5.31H6.19c-.16,0-.3-.1-.35-.25l-.55-1.49H1.4l1.27,7.04Z"/>
</svg>