<?xml version="1.0" encoding="UTF-8"?>
<svg id="icon-help" xmlns="http://www.w3.org/2000/svg" viewBox="0 0 16 16">
  <g>
    <path d="m9.77,4.86c-.54-.37-1.19-.55-1.84-.53-.51-.02-1.01.12-1.44.38-.62.4-.95,1.06-.98,1.99h1.44c0-.28.09-.56.24-.79.18-.27.49-.41.81-.38.38,0,.65.1.79.31.15.2.22.45.22.69,0,.22-.07.42-.19.6-.08.11-.18.21-.29.29l-.36.29c-.28.19-.51.44-.67.74-.11.37-.17.76-.17,1.15h1.34c0-.19.02-.39.07-.57.06-.22.18-.41.36-.55l.36-.26c.27-.19.51-.42.72-.67.22-.32.32-.7.31-1.08.05-.62-.22-1.23-.72-1.61h0Z"/>
    <path d="m7.3,10.25h1.48v1.43h-1.48v-1.43Z"/>
  </g>
  <path d="m8,15.65C3.78,15.65.35,12.22.35,8S3.78.35,8,.35s7.65,3.43,7.65,7.65-3.43,7.65-7.65,7.65Zm0-14.05c-3.53,0-6.4,2.87-6.4,6.4s2.87,6.4,6.4,6.4,6.4-2.87,6.4-6.4S11.53,1.6,8,1.6Z"/>
</svg>