<?xml version="1.0" encoding="UTF-8"?>
<svg id="icon-image" xmlns="http://www.w3.org/2000/svg" viewBox="0 0 16 16">
  <path d="m14.62.75H1.38c-.34,0-.62.28-.62.62v13.25c0,.35.28.62.62.62h13.25c.34,0,.62-.28.62-.62V1.38c0-.35-.28-.62-.62-.62Zm-.62,1.25v7.13l-2.49-3.11c-.07-.09-.17-.14-.29-.14-.1,0-.22.05-.29.13l-3.66,4.25-2.92-2.09c-.14-.1-.34-.09-.47.03l-1.88,1.76V2h12ZM2,14v-3.02l2.17-2.02,2.95,2.11c.16.11.38.09.5-.06l3.59-4.16,2.79,3.49v3.67H2Z"/>
  <path d="m6.61,6.99c.98,0,1.77-.79,1.77-1.77s-.79-1.77-1.77-1.77-1.77.79-1.77,1.77.79,1.77,1.77,1.77Zm0-2.79c.56,0,1.02.46,1.02,1.02s-.46,1.02-1.02,1.02-1.02-.46-1.02-1.02.46-1.02,1.02-1.02Z"/>
</svg>