<?xml version="1.0" encoding="UTF-8"?>
<svg id="icon-kausal-categories" xmlns="http://www.w3.org/2000/svg" viewBox="0 0 16 16">
  <path d="m6.99,1.15H1.64c-.34,0-.62.28-.62.62v5.35c0,.35.28.62.62.62h5.35c.34,0,.62-.28.62-.62V1.77c0-.35-.28-.62-.62-.62Zm-.62,1.25v1.03H2.27v-1.03h4.1ZM2.27,6.49v-2.32h4.1v2.32H2.27Z"/>
  <path d="m14.36,1.15h-5.35c-.34,0-.62.28-.62.62v5.35c0,.35.28.62.62.62h5.35c.34,0,.62-.28.62-.62V1.77c0-.35-.28-.62-.62-.62Zm-.62,1.25v1.03h-4.1v-1.03h4.1Zm-4.1,4.1v-2.32h4.1v2.32h-4.1Z"/>
  <path d="m6.99,8.72H1.64c-.34,0-.62.28-.62.62v5.35c0,.35.28.62.62.62h5.35c.34,0,.62-.28.62-.62v-5.35c0-.35-.28-.62-.62-.62Zm-.62,1.25v1.02H2.27v-1.02h4.1Zm-4.1,4.1v-2.32h4.1v2.32H2.27Z"/>
  <path d="m14.36,8.72h-5.35c-.34,0-.62.28-.62.62v5.35c0,.35.28.62.62.62h5.35c.34,0,.62-.28.62-.62v-5.35c0-.35-.28-.62-.62-.62Zm-.62,1.25v1.02h-4.1v-1.02h4.1Zm-4.1,4.1v-2.32h4.1v2.32h-4.1Z"/>
</svg>