<?xml version="1.0" encoding="UTF-8"?>
<svg id="icon-kausal-categories" xmlns="http://www.w3.org/2000/svg" viewBox="0 0 16 16">
  <path d="m10.29,2.05c.05-.05.2-.11.27-.11h1.21c.07,0,.22.06.27.11l2.31,2.31s.11.2.11.27v7.79h-4.36v.9h4.46c.43,0,.79-.36.79-.79v-7.89c0-.31-.16-.69-.37-.9l-2.31-2.31c-.22-.22-.6-.37-.9-.37h-1.21c-.31,0-.69.16-.9.38l-1.66,1.66.63.63,1.66-1.67Z"/>
  <path d="m1.59,14.96h6.81c.43,0,.79-.36.79-.79v-7.89c0-.31-.16-.69-.38-.9l-2.31-2.31c-.22-.22-.6-.37-.9-.37h-1.21c-.31,0-.69.16-.9.37l-2.31,2.31c-.22.22-.38.6-.38.9v7.9c0,.43.36.79.79.79h0Zm.1-8.69c0-.07.06-.22.11-.27l2.31-2.31c.05-.05.2-.11.27-.11h1.21c.07,0,.22.06.27.11l2.31,2.31s.11.2.11.27v7.79s-6.6,0-6.6,0v-7.79Z"/>
  <path d="m5,7.07c.79,0,1.44-.65,1.44-1.44s-.65-1.44-1.44-1.44-1.44.65-1.44,1.44c0,.38.15.75.42,1.02.27.27.63.42,1.02.42Zm0-1.98c.3,0,.54.24.54.54s-.24.54-.54.54c-.14,0-.28-.06-.38-.16-.1-.1-.16-.24-.16-.38,0-.3.24-.54.54-.54h0Z"/>
  <path d="m12.54,3.99c0-.79-.65-1.44-1.44-1.44s-1.44.65-1.44,1.44c0,.38.15.75.42,1.02.27.27.63.42,1.02.42.79,0,1.44-.64,1.44-1.44Zm-1.98,0c0-.3.24-.54.54-.54s.54.24.54.54-.24.54-.54.54c-.14,0-.28-.06-.38-.16-.1-.1-.16-.24-.16-.38h0Z"/>
  <path d="m2.84,12.63h1.44v.37h-1.44v-.37Z"/>
  <path d="m2.84,10.24h3.74v.37h-3.74v-.37Z"/>
  <path d="m2.84,11.43h3.74v.37h-3.74v-.37Z"/>
</svg>