<?xml version="1.0" encoding="UTF-8"?>
<svg id="icon-kausal-indicator" xmlns="http://www.w3.org/2000/svg" viewBox="0 0 16 16">
  <g>
    <path d="m11.44,5.49c.17-.2.17-.49,0-.68s-.48-.2-.68-.05l-2.43,2.01c-.38-.06-.76.05-1.05.33-.49.48-.5,1.25-.03,1.76.48.49,1.25.5,1.76.03.29-.29.41-.66.37-1.05l2.08-2.35Zm-2.99,2.78c-.15.23-.46.3-.69.15-.23-.15-.3-.46-.15-.69.15-.23.46-.3.69-.15.23.15.3.46.15.69Z"/>
    <path d="m8,1.81c3.42,0,6.19,2.78,6.19,6.19s-2.78,6.19-6.19,6.19S1.81,11.42,1.81,8,4.58,1.81,8,1.81m0-1.25C3.89.56.56,3.89.56,8s3.33,7.44,7.44,7.44,7.44-3.33,7.44-7.44S12.11.56,8,.56h0Z"/>
  </g>
  <circle cx="3.85" cy="8.23" r=".87"/>
  <circle cx="4.96" cy="5.09" r=".87"/>
  <circle cx="8" cy="3.48" r=".87"/>
  <circle cx="12.43" cy="8.23" r=".87"/>
</svg>