<?xml version="1.0" encoding="UTF-8"?>
<svg id="icon-kausal-actions" xmlns="http://www.w3.org/2000/svg" viewBox="0 0 16 16">
  <path d="m14.68,3.09h-4.01v-.89c0-.73-.61-1.34-1.34-1.34h-2.67c-.73,0-1.34.61-1.34,1.34v.89H1.32C.58,3.09-.02,3.7-.02,4.43v9.36c0,.73.61,1.34,1.34,1.34h13.37c.73,0,1.34-.61,1.34-1.34V4.43c0-.73-.61-1.34-1.34-1.34Zm-8.47-.89c0-.25.2-.45.45-.45h2.67c.25,0,.45.2.45.45v.89h-3.56v-.89Zm8,2.23l-.68,2.35c-.05.2-.23.32-.43.32h-3.33v-.45c0-.25-.2-.45-.45-.45h-2.67c-.25,0-.45.2-.45.45v.45h-3.33c-.2,0-.37-.12-.43-.32l-.68-2.35h12.44Zm-5.33,2.67v.89h-1.78v-.89h1.78Zm5.79,6.68H1.32v-7.74l.29.98c.16.57.69.96,1.28.96h3.33v.45c0,.25.2.45.45.45h2.67c.25,0,.45-.2.45-.45v-.45h3.33c.59,0,1.12-.39,1.28-.96l.29-.98v7.74Z"/>
</svg>