<?xml version="1.0" encoding="UTF-8"?>
<svg id="icon-kausal-category" xmlns="http://www.w3.org/2000/svg" viewBox="0 0 16 16">
  <path d="m6.73.71H1.38c-.34,0-.62.28-.62.62v5.35c0,.35.28.62.62.62h5.35c.34,0,.62-.28.62-.62V1.34c0-.35-.28-.62-.62-.62Zm-.62,1.25v1.25H2.01v-1.25h4.1ZM2.01,6.06v-2.09h4.1v2.09H2.01Z"/>
  <path d="m14.62.71h-5.35c-.34,0-.62.28-.62.62v5.35c0,.35.28.62.62.62h5.35c.34,0,.62-.28.62-.62V1.34c0-.35-.28-.62-.62-.62Zm-.62,1.25v1.25h-4.1v-1.25h4.1Zm-4.1,4.1v-2.09h4.1v2.09h-4.1Z"/>
  <path d="m6.73,8.69H1.38c-.34,0-.62.28-.62.62v5.35c0,.35.28.62.62.62h5.35c.34,0,.62-.28.62-.62v-5.35c0-.35-.28-.62-.62-.62Zm-.62,1.25v1.25H2.01v-1.25h4.1Zm-4.1,4.1v-2.09h4.1v2.09H2.01Z"/>
  <path d="m14.62,8.69h-5.35c-.34,0-.62.28-.62.62v5.35c0,.35.28.62.62.62h5.35c.34,0,.62-.28.62-.62v-5.35c0-.35-.28-.62-.62-.62Zm-.62,1.25v1.25h-4.1v-1.25h4.1Zm-4.1,4.1v-2.09h4.1v2.09h-4.1Z"/>
</svg>