<?xml version="1.0" encoding="UTF-8"?>
<svg id="icon-kausal-category" xmlns="http://www.w3.org/2000/svg" viewBox="0 0 16 16">
  <path d="m3.76,16h8.48c.54,0,.98-.44.98-.99V5.18c0-.38-.2-.85-.47-1.12l-2.88-2.88c-.27-.27-.74-.46-1.12-.46h-1.51c-.38,0-.86.19-1.13.46l-2.88,2.88c-.27.27-.47.75-.47,1.12v9.83c0,.54.44.98.99.98h0Zm.13-10.82c0-.09.08-.27.14-.34l2.88-2.88c.06-.06.25-.14.34-.14h1.51c.09,0,.27.08.34.14l2.87,2.88c.06.06.14.25.14.34v9.71s-8.21,0-8.21,0V5.18Z"/>
  <path d="m8,6.17c.99,0,1.79-.8,1.79-1.79s-.8-1.79-1.79-1.79-1.79.8-1.79,1.79c0,.48.19.93.52,1.27.34.34.79.52,1.27.52Zm0-2.47c.37,0,.68.3.68.68s-.3.68-.68.68c-.18,0-.35-.07-.48-.2-.13-.13-.2-.3-.2-.48,0-.37.3-.68.67-.68h0Z"/>
  <path d="m5.32,13.1h1.79v.46h-1.79v-.46Z"/>
  <path d="m5.32,10.13h4.66v.46h-4.66v-.46Z"/>
  <path d="m5.32,11.61h4.66v.46h-4.66v-.46Z"/>
</svg>